# xmcd
#
# Track frame offsets: 
#        150
#        42463
#        68490
#        94335
#        113070
#        136198
#        156185
#        177713
#
# Disc length: 2602 seconds
#
# Revision: 2
# Processed by: cddbd v1.5.1PL0 Copyright (c) Steve Scherf et al.
# Submitted via: ExactAudioCopy v0.95a5
#
DISCID=6b0a2808
DTITLE=Roy Ayers - Drive
DYEAR=1988
DGENRE=Jazz-Funk
TTITLE0=Black Familly
TTITLE1=Fast Money
TTITLE2=Lots of love
TTITLE3=Everybody
TTITLE4=D.C. City
TTITLE5=Drive
TTITLE6=And Then We Were One
TTITLE7=Chicago
EXTD=
EXTT0=
EXTT1=
EXTT2=
EXTT3=
EXTT4=
EXTT5=
EXTT6=
EXTT7=
PLAYORDER=
